<mxfile host="app.diagrams.net" modified="2024-05-14T19:23:19.340Z" agent="Mozilla/5.0 (Macintosh; Intel Mac OS X 10_15_7) AppleWebKit/537.36 (KHTML, like Gecko) Chrome/124.0.0.0 Safari/537.36" version="24.3.1" etag="YTiOt48Vr-FW-YlnH6wZ" type="github">
  <diagram name="Page-1" id="BiLFXhcZMA4_NzTKDT-P">
    <mxGraphModel>
      <root>
        <mxCell id="0" />
        <mxCell id="1" parent="0" />
      </root>
    </mxGraphModel>
  </diagram>
</mxfile>
